<?xml version="1.0" standalone="no"?>
<!DOCTYPE svg PUBLIC "-//W3C//DTD SVG 20010904//EN"
 "http://www.w3.org/TR/2001/REC-SVG-20010904/DTD/svg10.dtd">
<svg version="1.0" xmlns="http://www.w3.org/2000/svg"
 width="1284.000000pt" height="988.000000pt" viewBox="0 0 1284.000000 988.000000"
 preserveAspectRatio="xMidYMid meet">
<metadata>
Created by potrace 1.16, written by Peter Selinger 2001-2019
</metadata>
<g transform="translate(0.000000,988.000000) scale(0.100000,-0.100000)"
fill="#000000" stroke="none">
<path d="M4170 9247 c0 -292 3 -396 12 -405 9 -9 264 -12 1085 -12 l1073 0 0
-284 c0 -219 -3 -285 -12 -289 -10 -3 -10 -11 0 -39 6 -19 12 -42 12 -51 0
-16 -75 -17 -1073 -17 -821 0 -1076 -3 -1085 -12 -17 -17 -17 -1199 0 -1216 9
-9 264 -12 1085 -12 l1073 0 0 -395 0 -395 -410 0 -410 0 -2 348 -3 347 -1425
0 -1425 0 0 -355 0 -355 78 -3 77 -3 0 -384 0 -385 -1190 0 -1190 0 0 -620 0
-620 1190 0 1190 0 0 -294 c0 -227 -3 -295 -12 -299 -10 -3 -10 -11 0 -39 6
-19 12 -42 12 -51 0 -16 -83 -17 -1190 -17 l-1190 0 0 -620 0 -620 1190 0
1190 0 0 -295 c0 -211 -3 -295 -11 -295 -11 0 -9 -17 6 -67 l7 -23 -1191 0
-1191 0 0 -625 0 -625 2395 0 2395 0 0 613 c0 463 -3 616 -12 625 -9 9 -287
12 -1190 12 -648 0 -1178 2 -1178 5 0 3 7 22 15 42 19 44 19 43 -5 43 -20 0
-20 7 -20 295 l0 295 1183 0 c907 0 1186 3 1195 12 17 17 17 1199 0 1216 -9 9
-288 12 -1195 12 -651 0 -1183 4 -1183 8 0 5 9 27 20 50 11 22 20 44 20 47 0
3 -9 5 -20 5 -20 0 -20 7 -20 295 l0 295 1183 0 c907 0 1186 3 1195 12 9 9 12
158 12 608 0 450 -3 599 -12 608 -9 9 -288 12 -1195 12 l-1183 0 0 385 0 385
3570 0 3570 0 0 -385 0 -385 -1183 0 c-907 0 -1186 -3 -1195 -12 -9 -9 -12
-158 -12 -608 0 -450 3 -599 12 -608 9 -9 288 -12 1195 -12 l1183 0 0 -295 c0
-288 0 -295 -20 -295 -11 0 -20 -2 -20 -5 0 -3 9 -25 20 -47 11 -23 20 -45 20
-50 0 -4 -532 -8 -1183 -8 -907 0 -1186 -3 -1195 -12 -17 -17 -17 -1619 0
-1636 9 -9 288 -12 1195 -12 l1183 0 0 -85 c0 -78 -2 -85 -20 -85 -24 0 -24 1
-5 -43 8 -20 15 -39 15 -42 0 -3 -530 -5 -1178 -5 -903 0 -1181 -3 -1190 -12
-9 -9 -12 -162 -12 -625 l0 -613 2395 0 2395 0 0 625 0 625 -1191 0 -1191 0 7
23 c15 50 17 67 6 67 -7 0 -11 29 -11 85 l0 85 1190 0 1190 0 0 830 0 830
-1190 0 c-1107 0 -1190 1 -1190 17 0 9 6 32 13 51 10 28 10 36 0 39 -10 4 -13
72 -13 299 l0 294 1190 0 1190 0 0 620 0 620 -1190 0 -1190 0 0 385 0 384 148
3 147 3 0 355 0 355 -1425 0 -1425 0 -3 -347 -2 -348 -540 0 -540 0 0 395 0
395 1083 0 c829 0 1086 3 1095 12 17 17 17 1199 0 1216 -9 9 -266 12 -1095 12
-693 0 -1083 3 -1083 10 0 5 9 25 20 45 11 20 20 40 20 45 0 6 -9 10 -20 10
-20 0 -20 7 -20 285 l0 285 1083 0 c829 0 1086 3 1095 12 9 9 12 113 12 405
l0 393 -2190 0 -2190 0 0 -393z m4335 -7 l0 -365 -2145 0 -2145 0 -3 355 c-1
195 0 361 3 367 3 11 433 13 2147 11 l2143 -3 0 -365z m0 -1710 l0 -575 -2145
0 -2145 0 -3 565 c-1 311 0 571 3 578 3 10 438 12 2147 10 l2143 -3 0 -575z
m-3005 -1070 l0 -340 -1410 0 -1410 0 0 340 0 340 1410 0 1410 0 0 -340z
m4780 0 l0 -340 -1410 0 -1410 0 0 340 0 340 1410 0 1410 0 0 -340z m-5095
-1750 l0 -575 -2355 0 -2355 0 -3 565 c-1 311 0 571 3 578 3 10 480 12 2357
10 l2353 -3 0 -575z m7160 0 l0 -575 -2355 0 -2355 0 -3 565 c-1 311 0 571 3
578 3 10 480 12 2357 10 l2353 -3 0 -575z m-7160 -1940 l0 -575 -2355 0 -2355
0 -3 565 c-1 311 0 571 3 578 3 10 480 12 2357 10 l2353 -3 0 -575z m7160
-210 l0 -785 -2355 0 -2355 0 -3 775 c-1 426 0 781 3 788 3 10 480 12 2357 10
l2353 -3 0 -785z m-7160 -1720 l0 -585 -2355 0 -2355 0 -3 575 c-1 316 0 581
3 588 3 10 480 12 2357 10 l2353 -3 0 -585z m7160 0 l0 -585 -2355 0 -2355 0
-3 575 c-1 316 0 581 3 588 3 10 480 12 2357 10 l2353 -3 0 -585z"/>
<path d="M4594 9361 c-67 -29 -79 -166 -19 -218 37 -32 113 -32 143 0 26 27
28 52 6 61 -10 4 -23 -3 -36 -19 -37 -47 -86 -25 -103 46 -8 34 17 85 46 94
14 5 31 0 50 -14 45 -33 76 -10 44 33 -16 21 -96 32 -131 17z"/>
<path d="M6302 9348 c2 -18 10 -24 35 -26 l32 -3 3 -97 c3 -91 4 -97 25 -100
22 -3 22 0 25 94 l3 98 38 9 c27 7 37 14 35 26 -3 13 -20 16 -101 19 -98 3
-98 3 -95 -20z"/>
<path d="M7375 9348 c-3 -13 -5 -68 -3 -123 l3 -100 79 -3 c70 -3 81 0 102 19
27 26 31 65 9 89 -12 13 -13 23 -5 44 14 38 13 44 -15 71 -21 22 -33 25 -94
25 -65 0 -71 -2 -76 -22z"/>
<path d="M8037 9364 c-4 -4 -7 -61 -7 -126 0 -118 0 -119 23 -116 17 2 23 11
25 36 4 41 16 41 44 -3 22 -33 50 -45 62 -27 3 5 -6 25 -19 45 -30 44 -31 68
-5 92 27 25 25 35 -8 35 -16 0 -32 -8 -40 -20 -20 -33 -31 -23 -34 32 -2 38
-7 54 -18 56 -9 1 -19 0 -23 -4z"/>
<path d="M5608 9349 c-25 -14 -51 -70 -38 -83 5 -5 10 -29 10 -53 0 -62 17
-93 51 -93 34 0 48 19 26 35 -22 16 -23 91 -1 113 15 14 15 17 0 27 -9 7 -16
22 -16 33 0 26 -11 33 -32 21z"/>
<path d="M4819 9287 c-74 -56 -37 -167 56 -167 56 0 88 33 88 90 0 57 -32 90
-87 90 -23 0 -48 -6 -57 -13z"/>
<path d="M5200 9268 c-30 -50 -23 -103 19 -135 38 -29 131 -4 118 32 -7 17
-37 21 -37 5 0 -5 -13 -10 -30 -10 -23 0 -30 4 -30 20 0 18 7 20 55 20 51 0
55 2 55 24 0 13 -9 35 -21 50 -17 21 -29 26 -65 26 -39 0 -47 -4 -64 -32z"/>
<path d="M5401 9274 c-27 -34 -27 -88 0 -125 17 -24 27 -29 62 -29 46 1 77 18
77 43 0 24 -19 31 -39 13 -25 -23 -50 -20 -62 8 -17 37 -4 76 26 76 13 0 27
-4 30 -10 10 -16 45 -12 45 6 0 28 -27 44 -74 44 -36 0 -48 -5 -65 -26z"/>
<path d="M5800 9209 c0 -82 2 -89 20 -89 17 0 20 7 20 53 0 60 17 91 46 85 16
-3 20 -14 24 -68 4 -58 7 -65 28 -68 21 -3 22 -1 22 76 0 53 -4 83 -13 90 -7
6 -43 11 -80 10 l-67 -1 0 -88z"/>
<path d="M6021 9278 c-29 -30 -28 -96 1 -133 18 -23 26 -26 60 -22 28 4 38 2
38 -9 0 -19 -33 -35 -51 -23 -22 14 -59 11 -59 -6 0 -37 106 -49 139 -16 25
25 33 68 29 156 l-3 70 -67 3 c-58 2 -69 0 -87 -20z"/>
<path d="M6488 9294 c-3 -3 -2 -17 3 -32 5 -15 17 -52 27 -82 12 -37 24 -56
37 -59 22 -4 45 24 45 55 0 42 20 35 32 -11 11 -40 16 -46 36 -43 20 2 28 15
48 73 29 86 30 105 5 105 -14 0 -22 -12 -32 -45 -7 -25 -16 -45 -20 -45 -3 0
-12 20 -19 45 -10 37 -17 45 -37 45 -24 0 -27 -4 -38 -53 -7 -34 -28 -31 -33
4 -6 39 -35 62 -54 43z"/>
<path d="M6781 9274 c-13 -16 -21 -41 -21 -64 0 -57 31 -90 84 -90 50 0 89 31
68 52 -10 10 -17 10 -32 0 -30 -19 -60 -15 -60 7 0 17 8 20 53 23 51 3 52 3
49 33 -5 45 -28 65 -78 65 -34 0 -47 -5 -63 -26z"/>
<path d="M6981 9286 c-35 -42 -30 -135 9 -156 43 -23 120 -3 120 30 0 17 -22
22 -45 10 -28 -15 -55 -7 -55 15 0 12 12 15 55 15 51 0 55 2 55 24 0 13 -9 35
-21 50 -16 21 -29 26 -64 26 -24 0 -48 -6 -54 -14z"/>
<path d="M7630 9285 c-20 -24 -2 -35 45 -28 58 7 60 -12 4 -28 -47 -14 -71
-44 -62 -77 6 -26 29 -33 103 -29 l55 2 -4 70 c-4 97 -10 105 -75 105 -35 0
-58 -5 -66 -15z"/>
<path d="M7820 9209 c0 -82 2 -89 20 -89 17 0 20 7 20 53 0 60 17 91 46 85 16
-3 20 -14 24 -68 4 -58 7 -65 28 -68 21 -3 22 -1 22 76 0 53 -4 83 -13 90 -7
6 -43 11 -80 10 l-67 -1 0 -88z"/>
<path d="M5100 7846 c0 -35 -13 -55 -25 -36 -11 19 -51 10 -76 -16 -19 -20
-24 -36 -23 -76 1 -69 24 -88 100 -84 30 1 59 7 65 13 6 6 9 55 7 119 -3 104
-4 109 -25 112 -20 3 -23 -1 -23 -32z"/>
<path d="M5832 7868 c-7 -7 -12 -20 -12 -29 0 -9 -7 -22 -15 -29 -14 -11 -14
-15 -1 -29 9 -10 16 -42 18 -81 2 -50 7 -65 18 -65 11 0 16 16 20 62 4 47 10
66 25 77 11 9 22 16 26 16 10 0 59 -157 53 -174 -3 -9 -15 -16 -25 -16 -12 0
-19 -7 -19 -20 0 -15 7 -20 28 -20 29 0 72 35 72 58 0 7 4 20 9 30 19 36 51
125 51 143 0 45 -36 28 -55 -27 -15 -43 -32 -55 -41 -27 -22 64 -29 73 -59 73
-16 0 -37 5 -45 10 -13 8 -12 12 8 25 12 9 22 20 22 26 0 13 -64 11 -78 -3z"/>
<path d="M5209 7791 c-34 -35 -39 -92 -11 -129 26 -34 89 -41 122 -14 20 16
22 23 13 33 -10 10 -17 10 -37 -1 -27 -14 -60 -7 -53 13 2 7 22 12 46 13 23 1
47 6 52 11 15 15 0 61 -28 83 -36 28 -70 25 -104 -9z"/>
<path d="M5460 7811 c-8 -6 -27 -7 -42 -4 l-28 6 0 -86 c0 -87 6 -102 34 -91
12 5 16 20 16 64 0 60 16 88 45 76 11 -4 15 -21 15 -70 0 -49 4 -65 16 -70 28
-11 34 3 34 75 0 56 -4 73 -20 89 -21 21 -46 25 -70 11z"/>
<path d="M6224 7807 c-3 -8 -4 -49 -2 -93 2 -62 6 -79 18 -79 11 0 17 16 21
57 7 62 23 91 48 86 12 -2 19 -23 26 -73 7 -51 14 -70 25 -70 12 0 16 17 18
77 3 74 2 78 -24 94 -22 15 -31 16 -57 6 -21 -8 -35 -8 -41 -2 -14 14 -26 12
-32 -3z"/>
<path d="M6447 7794 c-32 -32 -37 -90 -11 -129 13 -20 25 -25 60 -25 37 0 44
-3 44 -20 0 -16 -7 -20 -30 -20 -16 0 -30 5 -30 10 0 6 -11 10 -25 10 -14 0
-25 -6 -25 -13 0 -45 102 -65 140 -27 27 27 31 52 28 145 l-3 80 -30 2 c-16 2
-44 5 -60 9 -25 4 -36 0 -58 -22z"/>
<path d="M6747 7814 c-4 -4 -7 -40 -7 -80 0 -89 14 -103 100 -100 l55 3 0 89
c0 72 -3 89 -15 89 -11 0 -17 -17 -22 -59 -8 -60 -21 -86 -44 -86 -19 0 -24
14 -32 82 -7 57 -19 78 -35 62z"/>
<path d="M7026 7813 c-4 -5 -22 -8 -39 -8 l-32 0 -3 -81 c-2 -68 0 -83 14 -88
27 -10 34 3 34 63 0 61 16 89 45 77 11 -4 15 -21 15 -64 0 -63 14 -87 44 -76
26 10 22 123 -5 158 -20 25 -57 34 -73 19z"/>
<path d="M7288 7806 c-45 -34 -46 -134 -2 -163 16 -10 35 -13 58 -9 34 7 35 6
38 -31 2 -26 8 -38 18 -38 12 0 15 22 18 124 l3 124 -30 -6 c-17 -4 -33 -2
-36 3 -9 14 -47 12 -67 -4z"/>
<path d="M7703 7796 c-24 -21 -28 -32 -28 -75 0 -59 15 -79 68 -88 54 -8 114
34 72 51 -9 3 -25 0 -35 -7 -14 -8 -25 -9 -36 -2 -30 19 -19 30 36 35 48 4 55
8 58 28 4 29 -48 82 -82 82 -14 0 -38 -11 -53 -24z"/>
<path d="M7477 7803 c-4 -3 -7 -35 -7 -70 0 -87 18 -104 97 -98 32 2 62 4 66
5 4 0 7 37 5 83 -3 76 -5 82 -25 85 -20 3 -23 -1 -24 -35 -2 -74 -12 -98 -39
-98 -24 0 -25 3 -28 68 -2 57 -6 67 -21 67 -10 0 -21 -3 -24 -7z"/>
<path d="M5920 7321 c0 -82 9 -103 47 -102 10 1 39 1 66 2 l47 1 0 89 c0 81
-2 89 -19 89 -24 0 -31 -19 -31 -80 0 -50 -16 -75 -43 -64 -19 7 -27 35 -27
97 0 40 -3 47 -20 47 -18 0 -20 -7 -20 -79z"/>
<path d="M6137 7382 c-20 -22 -22 -56 -4 -69 6 -5 28 -16 47 -23 47 -18 57
-28 35 -36 -11 -4 -30 -1 -45 8 -34 19 -61 8 -44 -19 21 -34 109 -39 141 -7
17 16 17 58 1 72 -7 5 -32 16 -55 23 -55 16 -56 34 -2 25 51 -8 66 0 43 25
-23 26 -95 26 -117 1z"/>
<path d="M6343 7382 c-27 -21 -37 -61 -29 -106 8 -42 57 -69 105 -60 39 8 57
36 36 54 -13 10 -19 9 -36 -6 -15 -13 -24 -15 -36 -8 -29 18 -18 29 32 32 59
4 70 12 61 46 -15 59 -86 85 -133 48z"/>
<path d="M6659 7381 c-20 -16 -22 -23 -14 -47 8 -22 21 -32 58 -44 26 -8 47
-19 47 -23 0 -17 -34 -19 -60 -4 -24 15 -29 15 -40 2 -20 -25 14 -49 70 -49
57 0 80 16 80 54 0 32 -11 43 -62 59 -51 17 -50 35 1 26 45 -7 65 10 36 32
-27 19 -89 16 -116 -6z"/>
<path d="M2877 6563 c-4 -3 -7 -46 -7 -95 0 -72 3 -88 15 -88 9 0 15 9 15 24
0 29 15 41 59 50 58 11 77 55 41 94 -16 17 -32 22 -69 22 -26 0 -51 -3 -54 -7z"/>
<path d="M3795 6547 c-3 -12 -5 -54 -3 -92 l3 -70 62 -3 c61 -3 63 -2 83 30
24 39 25 69 5 108 -20 38 -43 50 -99 50 -39 0 -46 -3 -51 -23z"/>
<path d="M3172 6500 c-46 -43 -16 -120 47 -122 41 -1 71 30 71 73 0 35 -34 69
-70 69 -14 0 -36 -9 -48 -20z"/>
<path d="M4625 6503 c-7 -20 -6 -147 1 -167 11 -28 34 -18 34 14 0 28 2 30 38
30 21 0 43 5 50 12 19 19 15 92 -5 111 -23 20 -110 20 -118 0z"/>
<path d="M4979 6501 c-17 -14 -23 -28 -22 -56 1 -48 21 -67 69 -67 67 0 97 70
49 117 -29 30 -64 32 -96 6z"/>
<path d="M7640 6474 c0 -86 2 -95 18 -92 12 2 18 14 20 41 2 20 7 37 12 37 5
0 24 -18 41 -40 18 -22 41 -40 51 -40 23 0 23 11 -2 43 -25 31 -25 33 0 64 16
20 17 29 8 47 -16 31 -27 36 -90 36 l-58 0 0 -96z"/>
<path d="M8654 6533 c-9 -21 -20 -47 -24 -58 -4 -11 -13 -33 -19 -48 -15 -39
-14 -47 8 -47 10 0 21 9 24 20 4 16 14 20 45 20 32 0 42 -4 47 -20 6 -19 45
-29 45 -12 0 16 -64 167 -74 174 -22 15 -35 7 -52 -29z"/>
<path d="M1035 5025 c-32 -32 -35 -41 -35 -91 0 -34 6 -64 16 -80 19 -29 63
-54 94 -54 30 0 78 27 91 52 10 18 8 24 -6 34 -16 12 -21 10 -41 -11 -25 -27
-65 -33 -83 -12 -16 20 -24 72 -17 102 3 13 18 32 32 41 24 16 27 16 54 -5 56
-41 89 -18 41 29 -44 44 -98 42 -146 -5z"/>
<path d="M2787 5054 c-4 -4 -7 -50 -7 -101 0 -91 1 -96 29 -124 32 -32 79 -38
124 -18 40 18 48 46 45 149 -3 87 -5 95 -23 95 -18 0 -20 -8 -25 -90 -6 -100
-11 -115 -43 -115 -44 0 -51 14 -57 112 -4 73 -8 93 -20 96 -9 1 -19 0 -23 -4z"/>
<path d="M1292 4980 c-13 -5 -30 -26 -38 -46 -39 -94 62 -173 141 -110 26 21
30 31 30 73 0 34 -6 55 -18 67 -21 21 -83 30 -115 16z"/>
<path d="M1673 4964 c-22 -22 -25 -32 -21 -76 6 -53 21 -73 66 -85 27 -6 78
13 86 33 8 21 -21 29 -49 14 -20 -11 -27 -11 -40 0 -27 22 -16 30 40 30 64 0
75 12 51 59 -30 57 -90 68 -133 25z"/>
<path d="M1884 4975 c-28 -19 -48 -69 -40 -101 9 -36 54 -74 87 -74 33 0 86
41 75 58 -8 14 -46 16 -46 3 0 -15 -32 -22 -46 -10 -8 6 -14 29 -14 50 0 29 5
39 21 44 12 4 26 2 32 -4 19 -19 47 -13 47 9 0 36 -77 53 -116 25z"/>
<path d="M2264 4981 c-2 -2 -4 -41 -4 -87 0 -60 4 -83 14 -87 23 -9 36 15 36
69 0 58 19 86 48 67 12 -7 18 -29 22 -74 4 -48 9 -64 20 -64 12 0 16 17 18 79
2 48 -1 83 -8 90 -10 10 -136 16 -146 7z"/>
<path d="M2484 4963 c-54 -58 -13 -158 63 -151 42 4 55 -15 23 -32 -17 -9 -26
-8 -45 4 -13 9 -31 13 -39 10 -19 -7 -19 -9 -6 -35 9 -15 22 -19 70 -19 83 0
92 15 88 145 l-3 98 -63 3 c-58 3 -66 0 -88 -23z"/>
<path d="M3042 4974 c-12 -8 -22 -24 -22 -34 0 -25 38 -60 65 -60 21 0 45 -17
45 -32 0 -12 -48 -10 -55 2 -8 13 -55 13 -55 1 0 -17 52 -51 77 -51 13 0 37 7
53 15 56 29 29 105 -37 105 -26 0 -39 18 -24 33 8 8 14 8 23 -1 17 -17 58 -15
58 3 0 34 -88 48 -128 19z"/>
<path d="M3258 4984 c-26 -8 -51 -71 -44 -110 13 -64 89 -95 134 -54 29 27 28
40 -3 40 -14 0 -25 -4 -25 -10 0 -15 -36 -12 -49 3 -16 21 -3 27 56 27 51 0
53 1 53 28 -1 55 -62 93 -122 76z"/>
<path d="M3655 4981 c-3 -2 -5 -58 -5 -123 l0 -118 25 0 c22 0 25 4 25 34 0
35 13 55 25 36 10 -16 40 -12 69 11 22 17 26 28 26 72 -1 76 -16 90 -95 92
-36 0 -68 -1 -70 -4z"/>
<path d="M4032 4980 c-49 -21 -57 -107 -13 -151 39 -39 79 -38 121 1 30 28 32
34 27 76 -2 25 -11 53 -20 61 -18 18 -85 26 -115 13z"/>
<path d="M4544 4975 c-28 -19 -48 -69 -40 -101 9 -35 53 -74 85 -74 32 0 71
25 71 46 0 17 -31 19 -47 3 -14 -14 -53 -2 -53 17 0 10 14 14 55 14 55 0 55 0
55 30 0 62 -75 101 -126 65z"/>
<path d="M2620 4600 c0 -36 -2 -41 -17 -35 -41 17 -51 15 -79 -8 -25 -22 -29
-32 -29 -77 0 -70 23 -89 106 -88 72 1 71 0 67 143 -3 95 -4 100 -25 103 -21
3 -23 -1 -23 -38z"/>
<path d="M2743 4568 c-12 -6 -24 -17 -27 -25 -8 -20 21 -28 50 -12 21 11 27
11 34 -1 12 -19 3 -30 -24 -30 -30 0 -76 -36 -76 -59 0 -34 31 -49 98 -48 l62
0 0 78 c0 77 -1 79 -30 94 -33 17 -56 18 -87 3z"/>
<path d="M3048 4564 c-16 -8 -28 -22 -28 -30 0 -13 6 -15 28 -10 47 12 65 11
69 -1 5 -13 -2 -17 -49 -27 -52 -12 -75 -58 -43 -90 11 -10 34 -14 80 -13 l65
2 0 70 c0 76 -4 86 -37 104 -29 15 -52 13 -85 -5z"/>
<path d="M8208 5037 c-35 -30 -48 -58 -48 -107 0 -72 49 -130 110 -130 30 0
78 27 91 52 10 18 8 24 -6 34 -16 12 -21 10 -41 -11 -26 -28 -51 -32 -79 -11
-14 10 -19 27 -19 66 -1 43 3 55 23 71 29 24 42 24 69 -1 34 -32 70 -23 56 14
-18 46 -113 60 -156 23z"/>
<path d="M9947 5053 c-11 -11 -8 -173 4 -196 27 -52 87 -71 142 -46 40 18 48
46 45 149 -3 87 -5 95 -23 95 -18 0 -20 -8 -25 -90 -5 -98 -11 -115 -40 -115
-45 0 -50 8 -50 92 0 44 -5 88 -10 99 -11 19 -31 25 -43 12z"/>
<path d="M8452 4980 c-49 -21 -57 -107 -13 -151 39 -39 79 -38 121 1 29 28 32
35 28 75 -3 24 -13 51 -22 60 -20 20 -82 28 -114 15z"/>
<path d="M8840 4972 c-15 -12 -24 -33 -27 -64 -5 -42 -3 -50 25 -78 17 -16 40
-30 52 -30 35 0 79 29 80 53 0 11 -38 8 -59 -5 -15 -9 -23 -9 -35 1 -27 23
-18 30 42 33 50 3 57 6 60 26 5 32 -48 82 -86 82 -16 0 -40 -8 -52 -18z"/>
<path d="M9043 4975 c-56 -39 -47 -139 16 -164 48 -20 111 5 111 45 0 20 -40
18 -56 -3 -21 -29 -48 -5 -52 45 -3 34 0 41 18 47 12 4 27 2 33 -4 18 -18 47
-13 47 9 0 38 -75 54 -117 25z"/>
<path d="M9424 4981 c-2 -2 -4 -42 -4 -88 0 -82 1 -84 23 -81 19 3 23 10 27
60 6 65 21 88 48 72 12 -8 18 -29 22 -75 4 -48 9 -64 20 -64 12 0 16 17 18 79
2 48 -1 83 -8 90 -10 10 -136 16 -146 7z"/>
<path d="M9667 4983 c-20 -5 -47 -52 -47 -83 0 -55 57 -109 93 -88 18 9 37 3
37 -12 0 -5 -9 -14 -21 -20 -16 -9 -26 -8 -45 5 -28 18 -44 13 -44 -15 0 -23
19 -30 81 -30 70 0 81 20 77 145 l-3 98 -55 2 c-30 1 -63 0 -73 -2z"/>
<path d="M10200 4968 c-11 -12 -20 -27 -20 -33 0 -18 44 -55 66 -55 20 0 44
-17 44 -32 0 -12 -48 -10 -55 2 -8 13 -55 13 -55 1 0 -5 12 -19 26 -30 54 -42
134 -16 134 44 0 24 -6 34 -25 43 -14 7 -34 12 -45 12 -24 0 -36 18 -21 33 8
8 14 8 23 -1 14 -14 54 -16 63 -3 9 16 -37 41 -77 41 -25 0 -44 -7 -58 -22z"/>
<path d="M10420 4984 c-25 -7 -42 -43 -42 -92 0 -39 5 -50 29 -69 15 -13 38
-23 51 -23 29 0 72 28 72 46 0 16 -36 19 -45 4 -14 -23 -55 -4 -55 26 0 2 25
4 55 4 55 0 55 0 55 30 0 57 -56 91 -120 74z"/>
<path d="M10980 4984 c-25 -7 -42 -43 -42 -92 0 -39 5 -50 29 -69 15 -13 38
-23 51 -23 29 0 72 28 72 46 0 16 -36 19 -45 4 -14 -23 -55 -4 -55 26 0 2 25
4 55 4 55 0 55 0 55 30 0 57 -56 91 -120 74z"/>
<path d="M11172 4980 c-49 -20 -54 -117 -7 -157 35 -31 76 -29 108 3 15 15 24
30 21 35 -8 14 -36 10 -56 -8 -17 -15 -19 -15 -38 2 -14 13 -20 29 -18 48 4
41 29 55 63 37 20 -11 28 -11 38 -1 9 10 7 16 -12 32 -25 20 -62 24 -99 9z"/>
<path d="M11370 4983 c-43 -16 -63 -84 -39 -136 11 -25 47 -47 75 -47 25 0 74
30 74 45 0 18 -41 20 -57 4 -15 -15 -43 -4 -43 16 0 11 12 15 50 15 60 0 69
13 45 63 -19 41 -59 57 -105 40z"/>
<path d="M11530 4976 c-12 -12 -13 -136 -1 -154 5 -8 17 -12 27 -10 16 3 20
15 24 68 5 61 6 65 30 65 24 0 25 -4 30 -65 4 -58 7 -65 28 -68 21 -3 22 0 22
72 0 96 -9 106 -91 103 -33 -1 -64 -6 -69 -11z"/>
<path d="M9284 4557 c-26 -23 -27 -26 -11 -33 10 -3 29 -1 43 6 18 10 27 11
35 3 15 -15 3 -33 -22 -33 -35 0 -69 -30 -69 -60 0 -40 19 -50 91 -47 l64 3 0
72 c0 81 -11 99 -66 108 -29 5 -41 1 -65 -19z"/>
<path d="M9493 4561 c-51 -32 -57 -123 -10 -156 33 -23 92 -19 117 7 11 12 20
26 20 30 0 17 -31 20 -49 4 -35 -32 -71 -13 -71 39 0 43 31 61 66 39 27 -19
49 -8 39 18 -6 16 -46 38 -68 38 -7 0 -26 -9 -44 -19z"/>
<path d="M10405 4568 c-33 -19 -44 -41 -44 -88 0 -51 14 -75 53 -90 33 -12 96
10 96 34 0 19 -40 22 -58 4 -8 -8 -15 -8 -27 2 -26 21 -17 29 38 32 46 3 52 6
55 27 5 35 -16 68 -51 81 -36 12 -37 12 -62 -2z"/>
<path d="M10589 4569 c-47 -17 -47 -80 -1 -98 15 -5 36 -11 46 -13 11 -2 21
-9 24 -15 6 -21 -28 -27 -57 -10 -18 11 -32 13 -41 6 -13 -8 -11 -13 9 -29 46
-39 141 -16 141 34 0 27 -29 56 -56 56 -11 0 -29 6 -40 14 -18 14 -18 15 0 22
10 4 27 2 37 -4 26 -16 49 -15 49 3 0 15 -49 46 -72 44 -7 0 -25 -5 -39 -10z"/>
<path d="M9855 4561 c-6 -10 40 -136 58 -158 24 -31 45 -13 76 65 36 90 38
102 12 102 -14 0 -24 -13 -37 -45 -16 -43 -44 -62 -44 -30 0 45 -48 93 -65 66z"/>
<path d="M920 3001 c0 -66 4 -122 9 -125 22 -14 41 7 41 44 0 38 0 39 47 46
64 9 97 43 90 91 -9 50 -30 62 -114 63 l-73 0 0 -119z"/>
<path d="M1499 3074 c-16 -34 -19 -48 -10 -57 6 -6 11 -39 11 -73 0 -47 4 -63
16 -68 27 -10 34 3 34 61 0 39 5 62 17 75 14 16 15 23 5 39 -14 22 -8 39 14
39 8 0 14 7 14 15 0 11 -11 15 -40 15 -38 0 -41 -3 -61 -46z"/>
<path d="M2652 3108 c-7 -7 -12 -18 -12 -25 0 -7 -6 -22 -12 -33 -10 -15 -10
-22 0 -32 7 -7 12 -38 12 -74 0 -65 7 -78 34 -68 12 5 16 20 16 62 0 38 5 61
17 74 15 16 15 22 4 40 -12 19 -11 23 8 38 12 8 19 19 15 23 -12 11 -69 8 -82
-5z"/>
<path d="M1325 3048 c-33 -19 -44 -41 -45 -89 0 -56 21 -78 79 -86 35 -5 44
-2 71 25 42 43 42 93 -1 133 -33 31 -70 37 -104 17z"/>
<path d="M1976 3053 c-4 -4 -21 -7 -39 -8 l-32 0 -3 -79 c-3 -83 3 -101 31
-90 13 5 17 19 17 58 0 63 20 97 47 80 13 -8 19 -26 21 -70 4 -67 13 -84 38
-64 24 21 16 144 -11 164 -21 16 -57 21 -69 9z"/>
<path d="M2135 3036 c-36 -36 -42 -73 -19 -115 17 -33 23 -36 67 -39 39 -3 48
-6 45 -20 -4 -20 -45 -29 -61 -13 -14 14 -44 14 -52 1 -3 -5 3 -18 15 -30 29
-29 99 -28 128 3 20 21 22 34 22 125 0 102 -8 125 -35 102 -10 -8 -19 -8 -34
-1 -30 17 -50 13 -76 -13z"/>
<path d="M2458 3045 c-30 -17 -42 -44 -40 -94 2 -45 29 -71 80 -78 36 -5 45
-2 72 25 49 49 36 119 -27 151 -29 15 -52 13 -85 -4z"/>
<path d="M3072 3040 c-12 -12 -22 -27 -22 -35 0 -23 37 -55 71 -62 36 -7 43
-17 24 -33 -11 -9 -20 -8 -44 6 -24 14 -34 15 -42 7 -28 -28 42 -61 101 -48
35 8 54 37 46 70 -4 17 -19 28 -56 40 -51 17 -66 35 -30 35 11 0 29 -6 40 -12
16 -10 22 -10 32 0 11 11 9 17 -11 33 -31 25 -81 24 -109 -1z"/>
<path d="M3284 3048 c-44 -21 -58 -104 -26 -146 26 -34 89 -41 122 -14 19 16
22 23 13 33 -9 9 -18 9 -42 -1 -32 -13 -51 -7 -51 16 0 11 11 14 43 13 56 -3
69 5 61 39 -13 56 -70 85 -120 60z"/>
<path d="M3596 3045 c-10 -8 -18 -26 -18 -41 0 -31 23 -52 65 -61 33 -7 45
-22 26 -33 -8 -5 -24 -2 -40 7 -15 9 -34 13 -43 10 -27 -11 -1 -45 39 -53 48
-9 82 2 101 31 15 22 15 27 2 48 -9 13 -34 27 -62 35 -25 6 -46 16 -46 22 0
14 43 13 57 -1 14 -14 43 -5 43 14 0 32 -89 48 -124 22z"/>
<path d="M4102 3044 c-34 -23 -30 -69 8 -89 16 -8 38 -15 50 -15 23 0 27 -25
6 -33 -8 -3 -22 1 -33 8 -27 21 -53 19 -53 -5 0 -42 116 -53 145 -13 31 40 10
71 -63 92 -23 6 -40 16 -37 21 8 13 55 13 55 0 0 -16 30 -12 37 5 14 38 -72
60 -115 29z"/>
<path d="M4445 3050 c-3 -5 -19 -7 -36 -3 l-30 6 3 -89 c2 -71 6 -89 18 -89
11 0 16 16 20 60 6 68 14 85 40 85 23 0 30 -19 30 -85 0 -39 4 -54 16 -59 28
-11 34 3 34 75 0 56 -4 73 -20 89 -21 21 -65 27 -75 10z"/>
<path d="M4607 3040 c-23 -19 -27 -29 -27 -74 0 -66 19 -86 79 -86 35 0 42 -3
39 -17 -3 -20 -58 -32 -58 -14 0 6 -13 11 -30 11 -36 0 -38 -12 -8 -40 15 -13
35 -20 63 -20 28 0 48 7 63 20 20 19 22 31 22 126 l0 105 -32 -1 c-18 -1 -44
2 -58 5 -18 5 -34 0 -53 -15z"/>
<path d="M2850 2976 c0 -96 9 -106 93 -102 l62 3 3 87 c3 86 2 87 -20 84 -21
-3 -23 -9 -26 -65 -2 -52 -6 -63 -23 -68 -30 -10 -38 3 -41 70 -3 54 -5 60
-25 63 -22 3 -23 0 -23 -72z"/>
<path d="M3874 3035 c-4 -9 -4 -43 -2 -77 6 -77 20 -89 97 -83 31 2 60 4 64 5
4 0 7 37 5 83 -3 76 -5 82 -25 85 -21 3 -23 -1 -24 -40 -2 -70 -11 -93 -39
-93 -24 0 -25 3 -28 68 -3 59 -5 67 -23 67 -11 0 -22 -7 -25 -15z"/>
<path d="M2358 2703 c-10 -2 -18 -12 -18 -22 0 -10 -9 -29 -21 -42 -18 -20
-18 -25 -5 -34 10 -8 16 -33 18 -76 3 -58 5 -64 26 -67 21 -3 22 0 22 63 0 58
3 68 20 72 11 3 20 12 20 20 0 8 -9 17 -20 20 -26 7 -25 17 2 35 37 25 9 45
-44 31z"/>
<path d="M1034 2687 c-2 -7 -3 -60 -2 -118 3 -99 4 -104 26 -107 21 -3 22 0
22 55 0 60 11 83 41 83 22 0 29 -20 29 -86 0 -51 1 -54 25 -54 24 0 25 2 25
73 0 92 -17 113 -80 103 l-40 -6 0 35 c0 29 -4 35 -20 35 -11 0 -23 -6 -26
-13z"/>
<path d="M3040 2666 c0 -34 -1 -35 -35 -29 -53 9 -85 -25 -85 -88 0 -78 22
-94 123 -91 l47 2 0 120 0 120 -25 0 c-22 0 -25 -4 -25 -34z"/>
<path d="M4183 2683 c-20 -8 -49 -76 -35 -81 7 -2 12 -25 12 -58 0 -41 5 -59
20 -74 24 -24 30 -24 54 -7 16 12 16 14 2 26 -18 15 -23 111 -6 111 6 0 10 9
10 20 0 11 -4 20 -9 20 -5 0 -12 11 -15 25 -6 25 -11 28 -33 18z"/>
<path d="M1260 2615 c-31 -33 -33 -107 -3 -137 24 -24 93 -29 118 -8 17 14 18
20 6 39 -7 11 -13 10 -33 -3 -27 -18 -58 -12 -58 10 0 9 17 14 53 16 47 3 52
5 55 29 2 17 -6 34 -24 52 -35 35 -82 36 -114 2z"/>
<path d="M1765 2622 c-8 -22 -5 -206 4 -220 15 -25 46 -9 49 25 3 30 5 32 43
30 53 -2 78 29 79 94 0 67 -26 88 -107 86 -42 -1 -64 -6 -68 -15z"/>
<path d="M2135 2616 c-67 -67 -25 -162 72 -159 45 1 73 29 80 80 11 85 -92
139 -152 79z"/>
<path d="M2659 2627 c-44 -33 -51 -97 -16 -141 19 -23 31 -29 65 -29 38 0 72
15 72 32 0 3 -4 12 -9 20 -7 11 -13 10 -33 -3 -27 -18 -58 -12 -58 10 0 9 17
14 53 16 l52 3 -2 35 c-1 22 -9 41 -23 52 -25 21 -78 23 -101 5z"/>
<path d="M3151 2613 c-33 -41 -37 -72 -15 -112 22 -40 66 -57 108 -41 30 11
44 36 28 52 -7 7 -18 5 -35 -6 -26 -18 -57 -12 -57 10 0 9 17 14 53 16 48 3
52 5 55 30 8 68 -95 106 -137 51z"/>
<path d="M3335 2620 c-30 -34 -11 -71 48 -90 26 -8 47 -19 47 -23 0 -16 -33
-19 -59 -5 -43 25 -68 4 -35 -30 20 -20 105 -22 128 -3 19 16 21 64 4 78 -7 6
-30 16 -50 22 -57 19 -60 35 -5 27 51 -8 73 8 42 31 -29 21 -99 17 -120 -7z"/>
<path d="M3542 2617 c-30 -32 -31 -116 -2 -142 40 -36 140 -14 140 32 0 15
-36 18 -45 3 -3 -5 -17 -10 -31 -10 -33 0 -52 40 -36 75 12 25 45 34 57 15 8
-13 55 -13 55 0 0 5 -10 18 -22 30 -31 28 -88 27 -116 -3z"/>
<path d="M3955 2631 c-3 -2 -5 -58 -5 -123 0 -118 0 -119 23 -116 17 2 23 11
25 35 3 30 5 32 42 30 57 -2 80 23 80 88 0 72 -24 94 -103 92 -32 -1 -60 -3
-62 -6z"/>
<path d="M4395 2616 c-31 -31 -40 -69 -25 -106 17 -42 33 -52 85 -52 62 -1 90
25 90 86 0 33 -6 51 -24 70 -33 35 -92 36 -126 2z"/>
<path d="M4584 2615 c-3 -11 -4 -50 -2 -85 3 -62 4 -65 28 -65 24 0 25 4 30
65 5 61 6 65 30 65 24 0 25 -3 28 -67 3 -65 4 -68 27 -68 24 0 25 2 25 68 0
97 -12 111 -96 109 -56 -2 -66 -5 -70 -22z"/>
<path d="M8040 3101 c0 -15 8 -20 33 -23 l32 -3 3 -97 c1 -54 7 -99 12 -99 34
-6 35 -3 40 96 l5 100 35 5 c22 3 35 10 35 20 0 12 -19 16 -97 18 -92 3 -98 1
-98 -17z"/>
<path d="M11877 3113 c-4 -3 -7 -19 -7 -35 0 -28 -2 -29 -30 -23 -38 8 -72
-12 -90 -54 -15 -38 -7 -75 24 -106 20 -20 32 -23 82 -21 l59 3 3 122 c2 112
1 121 -16 121 -10 0 -22 -3 -25 -7z"/>
<path d="M8262 3044 c-42 -29 -18 -60 27 -32 10 6 26 8 36 4 24 -9 1 -36 -31
-36 -29 0 -64 -33 -64 -59 0 -37 26 -50 93 -47 l62 3 0 76 c0 64 -3 78 -20 91
-26 20 -75 20 -103 0z"/>
<path d="M8606 3053 c-4 -5 -22 -8 -39 -8 l-32 0 -3 -81 c-2 -68 0 -83 14 -88
27 -10 34 3 34 63 0 61 16 89 45 77 11 -4 15 -21 15 -64 0 -63 14 -87 44 -76
26 10 22 123 -5 158 -20 25 -57 34 -73 19z"/>
<path d="M8764 3037 c-22 -20 -27 -32 -27 -70 0 -64 23 -89 78 -85 34 2 40 0
40 -17 0 -23 -40 -34 -58 -16 -16 16 -57 14 -57 -3 0 -44 111 -63 146 -25 16
18 19 37 19 123 l0 101 -32 0 c-17 0 -35 3 -39 8 -14 14 -43 7 -70 -16z"/>
<path d="M9061 3036 c-13 -13 -21 -32 -19 -43 3 -17 46 -44 92 -58 17 -5 18
-7 4 -21 -13 -13 -18 -13 -46 3 -25 14 -34 15 -44 5 -18 -18 11 -42 60 -49 54
-7 92 16 92 56 0 34 -11 43 -68 60 -23 6 -40 16 -37 21 8 14 31 12 55 -2 16
-10 22 -10 32 0 11 11 9 17 -11 33 -33 27 -82 25 -110 -5z"/>
<path d="M9263 3036 c-24 -21 -28 -31 -27 -74 1 -58 18 -81 69 -89 34 -5 85
16 85 36 0 15 -30 21 -49 9 -22 -14 -51 -4 -51 17 0 11 12 15 50 15 58 0 69
14 50 59 -21 53 -82 65 -127 27z"/>
<path d="M9444 3047 c-3 -8 -4 -49 -2 -93 2 -61 6 -79 18 -79 10 0 17 19 25
64 6 41 16 68 27 75 27 16 40 -5 47 -76 4 -47 10 -63 21 -63 24 0 27 141 4
166 -19 21 -46 24 -76 8 -14 -8 -23 -8 -31 0 -15 15 -27 14 -33 -2z"/>
<path d="M9867 3053 c-11 -11 -8 -171 3 -178 22 -13 39 17 42 72 2 39 8 59 20
67 25 15 31 3 36 -67 5 -69 11 -81 35 -71 13 5 17 19 17 64 0 39 5 62 15 70
26 22 44 -5 47 -73 2 -47 7 -62 18 -62 12 0 16 17 18 79 2 66 0 80 -15 92 -22
17 -55 18 -70 3 -9 -9 -20 -9 -43 1 -24 10 -37 10 -57 1 -18 -8 -29 -9 -37 -1
-12 12 -20 13 -29 3z"/>
<path d="M10186 3034 c-32 -33 -36 -99 -8 -134 26 -32 90 -38 122 -11 21 17
23 22 10 31 -8 5 -22 7 -30 4 -30 -13 -54 -9 -58 9 -3 16 2 18 35 17 61 -3 63
-2 63 34 0 27 -7 39 -29 55 -39 28 -73 26 -105 -5z"/>
<path d="M10446 3053 c-4 -4 -24 -7 -44 -8 l-37 0 -3 -81 c-2 -69 0 -83 14
-88 29 -11 43 13 46 77 3 59 4 62 28 62 24 0 25 -3 30 -70 5 -68 7 -71 40 -66
6 0 10 32 10 71 0 57 -4 74 -20 90 -20 20 -50 26 -64 13z"/>
<path d="M10812 3044 c-12 -8 -22 -22 -22 -30 0 -16 36 -19 45 -4 3 6 15 10
26 10 34 0 18 -33 -18 -41 -45 -9 -63 -26 -63 -60 0 -37 22 -48 95 -45 l60 3
3 68 c3 59 0 71 -19 91 -26 28 -74 32 -107 8z"/>
<path d="M11138 3030 c-27 -28 -30 -36 -25 -77 6 -60 26 -78 86 -78 53 0 71
13 88 61 20 57 -28 124 -90 124 -18 0 -39 -11 -59 -30z"/>
<path d="M11610 3051 c-8 -6 -27 -7 -42 -4 l-28 6 0 -86 c0 -87 6 -102 34 -91
12 5 16 20 16 58 0 63 20 97 47 80 13 -8 19 -26 21 -70 4 -67 13 -84 38 -63
24 20 15 144 -12 164 -22 17 -53 19 -74 6z"/>
<path d="M11334 3036 c-8 -21 0 -143 9 -153 11 -11 130 -11 145 0 14 11 17
134 3 155 -5 8 -17 12 -27 10 -16 -3 -20 -15 -24 -68 -5 -61 -6 -65 -30 -65
-24 0 -25 4 -30 65 -4 51 -9 66 -23 68 -9 2 -20 -4 -23 -12z"/>
<path d="M8335 2615 c-47 -46 -27 -142 32 -157 54 -14 115 24 85 54 -9 9 -17
6 -32 -7 -16 -14 -25 -17 -37 -9 -35 22 -26 34 24 34 59 0 77 11 69 38 -23 72
-94 95 -141 47z"/>
<path d="M8531 2616 c-31 -33 -36 -84 -13 -122 32 -51 115 -54 141 -5 15 28
14 31 -14 31 -14 0 -25 -5 -25 -11 0 -6 -12 -9 -27 -7 -25 3 -28 7 -31 46 -4
47 16 64 49 44 43 -27 72 -5 37 27 -31 29 -88 28 -117 -3z"/>
<path d="M8722 2617 c-29 -30 -31 -116 -4 -139 38 -34 115 -29 129 8 10 26
-12 38 -40 20 -26 -18 -57 -12 -57 10 0 9 17 14 53 16 48 3 52 5 55 30 8 65
-90 104 -136 55z"/>
<path d="M8900 2548 c0 -87 1 -89 23 -86 19 3 22 10 25 48 4 70 11 90 30 90
31 0 42 -22 42 -82 0 -51 2 -58 20 -58 18 0 20 7 20 79 0 51 -4 82 -13 89 -7
6 -43 10 -80 10 l-67 -1 0 -89z"/>
<path d="M9335 2620 c-14 -16 -16 -23 -7 -32 10 -10 17 -10 32 0 26 16 63 16
58 0 -3 -7 -25 -20 -49 -28 -40 -14 -44 -19 -47 -53 -4 -45 15 -55 99 -49 l56
4 -5 71 c-3 44 -10 79 -20 90 -22 25 -93 23 -117 -3z"/>
<path d="M9539 2621 c-20 -16 -24 -29 -24 -73 0 -59 13 -80 54 -91 37 -9 79 3
96 29 14 22 14 25 0 31 -9 3 -27 0 -39 -7 -37 -20 -61 -9 -64 28 -2 18 2 40 9
48 13 16 49 19 49 4 0 -5 11 -10 25 -10 29 0 31 7 9 38 -20 29 -82 30 -115 3z"/>
<path d="M9910 2625 c0 -9 7 -33 16 -53 21 -48 31 -73 38 -94 3 -11 15 -18 30
-18 20 0 28 11 55 78 36 89 38 102 13 102 -18 0 -26 -12 -51 -72 -15 -39 -24
-35 -41 20 -12 35 -21 48 -38 50 -15 2 -22 -2 -22 -13z"/>
<path d="M10440 2615 c-31 -33 -33 -107 -3 -137 24 -24 93 -29 118 -8 17 14
18 20 6 39 -7 11 -13 10 -33 -3 -27 -18 -58 -12 -58 10 0 9 17 14 53 16 47 3
52 5 55 29 2 17 -6 34 -24 52 -35 35 -82 36 -114 2z"/>
<path d="M10624 2615 c-25 -38 -7 -69 50 -86 25 -7 46 -17 46 -21 0 -16 -32
-21 -51 -10 -26 16 -59 15 -59 -2 0 -43 104 -57 142 -19 18 19 20 27 12 50 -7
21 -21 31 -57 42 -26 8 -47 18 -47 23 0 12 54 10 66 -2 8 -8 15 -6 24 5 19 23
-14 44 -67 45 -35 0 -46 -5 -59 -25z"/>
<path d="M10917 2634 c-12 -12 -8 -139 6 -157 13 -18 28 -21 100 -19 l48 2 -3
88 c-3 79 -5 87 -23 87 -18 0 -20 -8 -23 -67 -2 -47 -7 -68 -17 -72 -33 -12
-44 5 -47 72 -2 51 -7 68 -18 70 -9 1 -19 0 -23 -4z"/>
<path d="M11124 2615 c-25 -38 -7 -69 50 -86 47 -14 56 -32 19 -37 -11 -2 -25
4 -32 12 -10 12 -18 13 -32 6 -46 -25 31 -68 93 -52 23 6 36 17 43 36 13 38
-2 58 -58 75 -26 8 -47 18 -47 23 0 11 58 10 65 -2 7 -11 35 -2 35 12 0 20
-35 37 -77 38 -35 0 -46 -5 -59 -25z"/>
<path d="M11413 2624 c-2 -6 -3 -44 -1 -85 3 -68 5 -74 26 -77 21 -3 22 0 22
55 0 60 11 83 41 83 17 0 29 -43 29 -108 0 -29 3 -33 23 -30 20 3 22 9 25 66
2 45 -2 71 -13 88 -14 21 -22 23 -81 22 -38 -2 -68 -7 -71 -14z"/>
<path d="M11648 2629 c-22 -12 -39 -72 -31 -110 9 -44 36 -63 83 -56 41 5 52
-7 28 -31 -15 -15 -48 -16 -48 -2 0 6 -13 10 -30 10 -39 0 -40 -25 0 -45 37
-19 63 -19 100 0 35 18 42 48 38 160 l-3 79 -60 3 c-33 1 -68 -2 -77 -8z"/>
<path d="M9940 2255 c0 -35 0 -35 -46 -35 -63 0 -79 -18 -79 -91 0 -75 16 -88
103 -87 l62 1 0 123 c0 117 -1 124 -20 124 -16 0 -20 -7 -20 -35z"/>
<path d="M10766 2274 c-3 -9 -6 -24 -6 -35 0 -15 -7 -19 -40 -19 -54 0 -80
-29 -80 -90 0 -70 27 -90 111 -87 l64 2 3 100 c2 55 0 110 -3 123 -6 26 -40
30 -49 6z"/>
<path d="M9130 2205 c-20 -24 -2 -35 45 -28 57 7 61 -12 5 -28 -55 -17 -76
-42 -64 -77 9 -26 12 -27 84 -27 l74 0 -3 70 c-4 96 -10 105 -75 105 -35 0
-58 -5 -66 -15z"/>
<path d="M9414 2205 c-3 -6 -4 -45 -2 -86 3 -68 5 -74 26 -77 20 -3 22 0 22
51 0 70 7 87 35 87 26 0 35 -22 35 -93 0 -44 2 -48 23 -45 20 3 22 9 25 72 4
93 -8 106 -95 104 -40 -1 -67 -6 -69 -13z"/>
<path d="M9634 2199 c-13 -15 -19 -36 -19 -69 0 -64 23 -90 80 -90 49 0 88 31
67 52 -10 10 -17 10 -32 0 -26 -16 -57 -15 -63 2 -8 22 2 26 60 26 47 0 53 2
53 21 0 11 -9 34 -21 50 -17 24 -27 29 -63 29 -31 0 -48 -6 -62 -21z"/>
<path d="M10120 2129 c0 -88 0 -89 25 -89 23 0 25 4 25 48 0 71 9 94 34 90 18
-3 22 -11 26 -68 4 -58 7 -65 28 -68 20 -3 22 0 22 51 0 71 7 87 36 87 23 0
24 -3 24 -71 0 -67 1 -70 23 -67 21 3 22 8 22 81 0 58 -4 80 -15 87 -20 13
-77 13 -85 0 -5 -8 -11 -8 -19 -1 -7 6 -42 10 -79 9 l-67 -1 0 -88z"/>
<path d="M10458 2203 c-44 -50 -46 -88 -7 -136 16 -22 29 -27 62 -27 26 0 52
8 67 20 21 16 25 27 25 70 0 42 -4 55 -24 71 -30 25 -102 26 -123 2z"/>
<path d="M10879 2207 c-27 -21 -39 -73 -27 -109 15 -44 35 -57 84 -58 44 0 70
19 60 45 -6 17 -36 21 -36 4 0 -6 -12 -9 -27 -7 -17 2 -28 9 -28 18 0 11 14
16 50 18 28 2 54 7 58 11 10 10 -12 61 -33 78 -19 16 -80 16 -101 0z"/>
<path d="M928 1184 c-5 -4 -8 -61 -8 -126 0 -118 0 -119 23 -116 18 2 23 11
27 43 5 40 6 40 60 51 42 8 58 16 67 35 18 34 16 63 -6 90 -15 19 -30 24 -87
27 -38 2 -72 0 -76 -4z"/>
<path d="M1517 1172 c-9 -10 -17 -26 -17 -35 0 -9 -4 -17 -10 -17 -5 0 -10 -9
-10 -20 0 -11 4 -20 10 -20 5 0 10 -30 12 -67 3 -62 5 -68 26 -71 21 -3 22 0
22 60 0 53 4 67 22 82 20 18 21 19 3 32 -20 15 -14 44 11 44 28 0 9 25 -22 28
-20 2 -36 -4 -47 -16z"/>
<path d="M2656 1174 c-9 -8 -16 -24 -16 -35 0 -10 -4 -19 -10 -19 -5 0 -10 -9
-10 -20 0 -11 5 -20 10 -20 6 0 10 -30 10 -71 0 -67 1 -70 23 -67 20 3 22 9
25 66 2 44 7 65 17 69 20 7 19 33 -2 48 -15 11 -14 14 10 30 15 9 24 21 21 26
-9 15 -61 10 -78 -7z"/>
<path d="M1302 1097 c-31 -33 -31 -105 1 -135 34 -32 96 -30 131 4 59 60 17
154 -69 154 -30 0 -47 -6 -63 -23z"/>
<path d="M1900 1029 c0 -88 0 -89 25 -89 23 0 25 4 25 48 0 75 8 94 39 90 25
-3 26 -6 29 -71 3 -64 4 -68 25 -65 20 3 22 10 25 63 1 34 -3 71 -11 85 -12
23 -18 25 -85 26 l-72 1 0 -88z"/>
<path d="M2120 1087 c-23 -37 -24 -52 -10 -94 14 -38 49 -58 89 -50 35 7 43
-11 15 -34 -12 -10 -20 -10 -35 -1 -29 18 -61 15 -57 -5 5 -26 69 -45 108 -32
43 16 50 35 50 147 l0 99 -70 1 c-69 2 -71 1 -90 -31z"/>
<path d="M2440 1095 c-16 -17 -23 -36 -23 -65 0 -57 32 -90 88 -90 65 0 107
52 91 115 -16 65 -110 89 -156 40z"/>
<path d="M2850 1050 c0 -103 5 -109 90 -108 l70 2 0 89 c0 86 -1 88 -22 85
-21 -3 -24 -10 -28 -68 -5 -62 -6 -65 -32 -68 -27 -3 -27 -3 -30 65 -3 62 -5
68 -25 71 -22 3 -23 0 -23 -68z"/>
<path d="M3064 1095 c-24 -37 -10 -61 46 -81 28 -10 50 -21 50 -25 0 -17 -34
-18 -61 -2 -22 13 -32 14 -41 5 -22 -22 19 -52 72 -52 106 0 108 96 3 116 -18
3 -33 10 -33 14 0 15 30 19 55 8 19 -9 28 -9 37 0 21 21 -10 42 -63 42 -40 0
-51 -4 -65 -25z"/>
<path d="M3261 1091 c-27 -37 -27 -91 0 -125 16 -21 29 -26 62 -26 48 1 82 21
74 45 -7 17 -33 20 -42 5 -3 -5 -17 -10 -31 -10 -19 0 -25 5 -22 18 2 13 16
18 53 22 49 5 50 6 47 35 -5 45 -28 65 -78 65 -36 0 -46 -5 -63 -29z"/>
<path d="M3593 1108 c-33 -42 -15 -78 46 -97 23 -6 41 -16 41 -22 0 -18 -30
-21 -55 -5 -32 21 -45 20 -45 -2 0 -30 21 -42 71 -42 39 0 51 5 68 26 28 36
12 67 -43 85 -57 17 -61 20 -43 30 9 6 26 5 42 -3 33 -15 56 2 35 27 -15 19
-103 21 -117 3z"/>
<path d="M3877 1113 c-14 -13 -7 -128 9 -151 13 -20 23 -22 82 -19 l67 3 0 84
c0 81 -1 85 -22 88 -20 3 -23 -1 -23 -30 0 -18 -3 -50 -7 -71 -5 -34 -9 -38
-32 -35 -25 3 -26 6 -29 71 -2 57 -6 67 -21 67 -10 0 -21 -3 -24 -7z"/>
<path d="M4092 1108 c-16 -16 -15 -63 1 -75 6 -6 29 -16 50 -23 21 -6 36 -17
34 -23 -6 -19 -33 -19 -51 -2 -18 18 -46 14 -46 -8 0 -25 24 -37 72 -37 36 0
52 5 68 22 11 12 20 27 20 32 -1 23 -28 45 -68 58 -23 7 -42 16 -42 20 0 15
20 18 45 6 33 -15 56 2 35 27 -15 18 -100 21 -118 3z"/>
<path d="M4380 1029 c0 -82 2 -89 20 -89 18 0 20 7 20 58 0 60 11 82 42 82 19
0 26 -20 30 -90 3 -38 6 -45 26 -48 21 -3 22 0 22 71 0 95 -11 106 -98 105
l-62 -1 0 -88z"/>
<path d="M4600 1098 c-30 -33 -28 -107 5 -138 19 -18 31 -22 60 -17 38 6 48
-10 19 -34 -12 -10 -20 -10 -35 -1 -25 16 -72 16 -67 0 2 -7 20 -21 39 -30 28
-14 42 -16 72 -7 20 5 41 18 47 29 5 10 10 63 10 118 l0 99 -65 1 c-54 1 -68
-2 -85 -20z"/>
<path d="M1041 761 c-12 -21 -15 -181 -5 -218 4 -14 14 -23 25 -23 16 0 19 8
19 59 0 41 5 65 16 75 33 34 52 10 56 -69 3 -52 6 -60 23 -60 18 0 20 7 22 70
4 90 -9 108 -71 107 -45 -1 -45 -1 -48 35 -3 42 -22 54 -37 24z"/>
<path d="M2363 774 c-6 -3 -22 -26 -34 -50 -16 -34 -19 -48 -10 -57 6 -6 11
-34 11 -63 0 -65 7 -84 31 -84 17 0 19 8 19 69 0 60 2 69 20 74 11 3 20 12 20
20 0 8 -9 17 -20 20 -26 7 -26 27 0 34 13 3 20 12 18 22 -3 16 -33 24 -55 15z"/>
<path d="M3047 763 c-4 -3 -7 -19 -7 -34 0 -26 -3 -28 -39 -26 -58 2 -81 -23
-81 -88 0 -74 25 -95 105 -92 l60 3 3 122 c2 113 1 122 -16 122 -10 0 -22 -3
-25 -7z"/>
<path d="M4177 742 c-9 -10 -17 -23 -17 -29 0 -6 -6 -13 -12 -16 -10 -3 -10
-9 0 -26 6 -11 12 -42 12 -68 1 -57 17 -83 53 -83 32 0 45 19 24 35 -20 15
-23 86 -4 115 9 15 9 22 1 28 -7 4 -14 18 -15 31 -5 31 -21 36 -42 13z"/>
<path d="M1285 701 c-34 -14 -48 -40 -48 -87 0 -59 31 -94 83 -94 23 0 43 7
53 18 33 37 10 57 -33 30 -15 -10 -25 -10 -38 -2 -29 19 -15 29 43 32 51 3 55
5 55 27 0 50 -68 95 -115 76z"/>
<path d="M1815 701 l-50 -6 0 -115 0 -115 25 0 c21 0 26 5 28 31 3 31 5 32 41
27 32 -4 41 -1 59 22 28 35 30 104 5 133 -22 25 -45 30 -108 23z"/>
<path d="M2180 703 c-41 -13 -60 -29 -71 -60 -21 -65 23 -123 92 -123 30 0 43
7 64 32 23 27 26 39 22 71 -8 58 -58 95 -107 80z"/>
<path d="M2683 703 c-29 -6 -63 -53 -63 -88 0 -30 16 -65 39 -82 25 -19 85
-16 104 5 33 36 10 57 -32 30 -22 -14 -51 -4 -51 17 0 12 12 15 56 15 l57 0
-7 32 c-10 53 -51 81 -103 71z"/>
<path d="M3180 701 c-15 -4 -33 -22 -45 -43 -18 -33 -18 -40 -6 -75 18 -48 37
-62 81 -62 40 0 70 18 70 43 0 19 -22 21 -49 4 -22 -14 -51 -4 -51 17 0 12 12
15 56 15 l57 0 -6 35 c-3 19 -12 41 -19 48 -18 18 -57 26 -88 18z"/>
<path d="M3365 703 c-11 -3 -25 -13 -32 -22 -28 -37 -8 -68 55 -86 20 -6 37
-16 40 -24 5 -14 -9 -13 -80 5 -22 5 -28 3 -28 -9 0 -41 94 -62 138 -31 34 23
30 69 -8 89 -16 8 -38 15 -50 15 -11 0 -20 7 -20 16 0 12 8 14 45 8 46 -6 58
3 32 25 -17 14 -65 21 -92 14z"/>
<path d="M3575 703 c-40 -10 -55 -34 -55 -88 0 -63 27 -95 81 -95 34 0 79 29
79 51 0 18 -31 22 -49 5 -25 -23 -46 -20 -59 9 -16 35 -15 42 8 65 20 20 22
20 50 3 24 -13 32 -15 42 -5 26 26 -47 68 -97 55z"/>
<path d="M3998 703 l-48 -4 0 -120 0 -119 25 0 c22 0 25 4 25 34 0 34 1 35 35
29 55 -9 85 24 85 92 0 75 -27 95 -122 88z"/>
<path d="M4430 702 c-50 -9 -81 -71 -60 -123 26 -62 96 -79 147 -35 23 20 28
32 28 70 0 67 -44 101 -115 88z"/>
<path d="M4635 701 l-50 -6 -3 -65 c-4 -87 3 -112 31 -108 20 3 22 10 25 70 2
47 7 68 17 72 33 12 44 -5 47 -72 3 -59 5 -67 23 -67 18 0 20 8 23 70 4 101
-14 117 -113 106z"/>
<path d="M8082 1182 c-9 -6 -12 -38 -10 -123 3 -109 4 -114 25 -117 19 -3 22
2 25 40 l3 43 51 10 c67 13 84 29 84 75 0 53 -26 73 -103 77 -34 2 -68 0 -75
-5z"/>
<path d="M8451 1094 c-13 -16 -21 -41 -21 -64 0 -58 31 -90 86 -90 61 0 94 32
94 90 0 58 -33 90 -94 90 -36 0 -48 -5 -65 -26z"/>
<path d="M9060 1029 c0 -82 2 -89 20 -89 18 0 20 7 20 59 0 62 14 86 47 79 14
-3 19 -16 23 -68 4 -58 7 -65 28 -68 21 -3 22 0 22 70 -1 98 -9 108 -93 106
l-67 -1 0 -88z"/>
<path d="M9280 1098 c-30 -33 -28 -107 5 -138 19 -18 31 -22 60 -17 29 5 35 3
35 -13 0 -23 -26 -33 -50 -20 -10 6 -31 10 -45 10 -36 0 -28 -20 17 -43 31
-15 40 -16 74 -5 32 11 41 20 52 52 7 23 12 73 10 115 l-3 76 -67 2 c-58 3
-70 0 -88 -19z"/>
<path d="M9598 1103 c-44 -50 -46 -88 -7 -136 16 -22 29 -27 64 -27 65 0 90
25 90 90 0 42 -4 55 -24 71 -30 25 -102 26 -123 2z"/>
<path d="M10000 1048 c1 -98 9 -108 93 -106 l67 1 0 88 c0 82 -2 89 -20 89
-17 0 -20 -7 -20 -53 0 -60 -17 -91 -46 -85 -16 3 -20 14 -24 68 -4 58 -7 65
-27 68 -22 3 -23 0 -23 -70z"/>
<path d="M10217 1102 c-33 -37 -13 -69 56 -92 20 -6 37 -15 37 -20 0 -17 -33
-19 -61 -3 -22 13 -32 14 -41 5 -22 -22 19 -52 71 -52 60 1 83 18 79 61 -3 28
-8 34 -48 48 -56 19 -56 19 -43 32 7 7 18 6 37 -2 34 -16 57 1 36 26 -18 22
-102 20 -123 -3z"/>
<path d="M10419 1101 c-30 -24 -33 -109 -4 -141 32 -36 135 -21 135 20 0 17
-22 22 -45 10 -27 -14 -59 -6 -53 13 3 7 26 13 56 15 47 3 52 5 52 26 0 13 -9
35 -21 50 -25 32 -84 36 -120 7z"/>
<path d="M10734 1099 c-17 -18 -17 -23 -4 -46 9 -16 32 -32 58 -41 23 -7 42
-18 42 -22 0 -20 -24 -21 -56 -4 -41 23 -62 10 -38 -24 12 -18 25 -22 68 -22
62 0 79 14 74 61 -3 28 -9 34 -48 48 -56 19 -56 19 -43 32 6 6 19 6 38 -1 35
-13 55 1 35 25 -20 24 -102 20 -126 -6z"/>
<path d="M11027 1113 c-14 -13 -7 -128 9 -151 13 -19 23 -22 82 -19 l67 2 0
85 c0 80 -1 85 -22 88 -21 3 -22 -1 -25 -65 -3 -65 -4 -68 -29 -71 -31 -4 -39
15 -39 91 0 39 -3 47 -18 47 -10 0 -22 -3 -25 -7z"/>
<path d="M11240 1101 c-14 -26 -13 -56 3 -69 6 -5 31 -16 55 -23 23 -6 42 -15
42 -20 0 -16 -33 -18 -60 -4 -39 20 -50 19 -50 -5 0 -26 29 -40 84 -40 38 0
48 4 62 25 25 38 7 69 -50 86 -25 7 -46 17 -46 21 0 15 19 17 50 7 23 -9 34
-9 43 0 18 18 -22 40 -75 41 -37 0 -50 -4 -58 -19z"/>
<path d="M11524 1105 c-3 -7 -4 -45 -2 -86 3 -71 4 -74 28 -74 24 0 25 4 30
65 5 62 6 65 33 68 l27 3 0 -70 c0 -69 1 -71 25 -71 24 0 25 2 25 71 0 102 -6
109 -91 107 -44 -1 -72 -5 -75 -13z"/>
<path d="M11756 1105 c-12 -9 -20 -31 -23 -62 -4 -39 -1 -53 18 -77 20 -26 26
-28 66 -22 47 6 53 -1 24 -28 -15 -14 -24 -15 -40 -7 -11 6 -29 11 -41 11 -36
0 -19 -33 24 -48 34 -11 43 -10 75 5 l36 18 3 111 3 111 -63 1 c-40 1 -70 -4
-82 -13z"/>
<path d="M8967 774 c-4 -4 -7 -63 -7 -131 0 -114 1 -123 19 -123 16 0 20 10
26 64 7 67 21 91 48 80 19 -7 27 -35 27 -96 0 -41 3 -48 20 -48 18 0 20 7 20
79 0 91 -9 104 -73 105 -40 1 -42 3 -47 35 -5 34 -19 48 -33 35z"/>
<path d="M8857 742 c-9 -10 -17 -23 -17 -29 0 -6 -6 -13 -12 -16 -10 -3 -10
-9 0 -26 6 -11 12 -42 12 -68 1 -57 17 -83 53 -83 32 0 45 19 24 35 -20 15
-23 86 -4 115 9 15 9 22 1 28 -7 4 -14 18 -15 31 -5 31 -21 36 -42 13z"/>
<path d="M9215 703 c-55 -13 -77 -119 -32 -161 31 -29 89 -30 118 -1 30 30 11
45 -36 28 -31 -12 -37 -11 -45 1 -17 26 -11 30 45 30 54 0 55 1 55 29 0 51
-50 86 -105 74z"/>
<path d="M9724 700 c-29 -11 -39 -29 -25 -43 7 -7 18 -7 36 1 18 8 32 9 43 3
14 -8 10 -12 -23 -26 -61 -24 -70 -30 -73 -54 -6 -42 23 -60 94 -59 l64 1 0
78 c0 49 -4 80 -12 87 -19 15 -80 23 -104 12z"/>
<path d="M9933 703 c-33 -6 -53 -41 -53 -93 0 -58 29 -90 81 -90 34 0 79 29
79 51 0 18 -31 22 -49 5 -25 -23 -46 -20 -59 9 -16 35 -15 42 8 65 20 20 22
20 50 3 24 -13 32 -15 42 -5 26 26 -45 66 -99 55z"/>
<path d="M10840 703 c-62 -22 -82 -107 -35 -157 30 -32 82 -35 116 -7 20 16
22 22 11 33 -10 10 -16 10 -32 0 -24 -15 -60 -16 -60 -2 0 6 -1 13 -2 18 -2 4
22 9 52 12 54 5 55 5 52 35 -6 48 -58 83 -102 68z"/>
<path d="M11010 697 c-17 -8 -26 -22 -28 -43 -3 -31 1 -35 71 -63 15 -6 27
-15 27 -21 0 -13 -47 -13 -55 0 -10 17 -45 12 -45 -6 0 -46 100 -61 138 -21
12 13 22 31 22 39 0 20 -47 55 -80 59 -41 6 -23 24 20 21 30 -3 40 0 40 12 0
19 -7 23 -50 30 -21 4 -45 1 -60 -7z"/>
<path d="M10280 680 c0 -11 4 -28 9 -38 5 -9 20 -41 32 -70 32 -74 54 -69 90
20 44 107 44 108 17 108 -19 0 -27 -9 -39 -41 -8 -22 -19 -41 -24 -42 -6 -1
-19 17 -29 41 -21 45 -56 59 -56 22z"/>
</g>
</svg>
